<?xml version="1.0" encoding="UTF-8"?>
<!-- Generator: Adobe Illustrator 19.1.0, SVG Export Plug-In . SVG Version: 6.00 Build 0)  -->
<svg version="1.1" id="Lager_1" xmlns="http://www.w3.org/2000/svg"  x="0px" y="0px" viewBox="-468 357.6 254.7 126.3" style="enable-background:new -468 357.6 254.7 126.3;" xml:space="preserve">
<style type="text/css">
	.st0{fill:#FFFFFF;}
	.st1{fill:#92ACBE;}
	.st2{fill:none;stroke:#AC9E00;stroke-width:0.9;stroke-linecap:round;}
	.st3{fill:#636F03;}
	.st4{fill:#EDEDED;}
	.st5{fill:#AC9E00;}
	.st6{fill:#B2B2B2;}
	.st7{fill:#878787;}
	.st8{fill:#231F20;}
</style>
<g>
	<rect x="-296.2" y="386.7" class="st0" width="4.5" height="3.8"/>
	<path class="st1" d="M-349.5,357.6h8.6l0.3,5l7.6,1.5l2.2-4.5l8,3.2l-1.6,4.8l6.5,4.2l3.7-3.4l6.2,6l-3.3,3.8l4.5,6.4l4.7-1.7   l2.2,4.5l1.1,2.9l0.9,3c0,0-9.4,17.6-17.2,15.6c-21.5-5.3-41.6-4.5-63-2.1l-14.7-13.7l0.9-2.9l1.1-2.9l2.2-4.5l4.9,1.8l4.4-6.3   l-3.3-4l6.2-6l3.8,3.5l6.6-4.2l-1.6-4.9l8-3.2l2.2,4.6l7.6-1.5L-349.5,357.6z"/>
	<path class="st2" d="M-285.9,389.9c4.8-2.7,3.4,1.1,7.3-1.6"/>
	<path class="st3" d="M-300,385.5c-8.8,0.3-12.4,12.1-11.6,16.2c2.6,13-7.5,34.6-34,33.8c-16.3-0.5-25.3-17.6-29.5-28.8l-12.7-12.4   c-8.8,30.2,16.7,56.3,42.6,56.3c22.5,0,45.7-15.4,46.2-48c0.1-4.4,2.9-5.5,4.9-6c6.8-1.9,9.7-2.5,9.7-6.7   C-284.4,384.8-291.9,385.2-300,385.5 M-293.6,389.5c-0.6,0.1-1.6-0.1-1.7-0.6c-0.1-0.3,0.7-1.2,1.3-1.3c0.6-0.1,1.6,0.3,1.7,0.7   C-292.3,388.5-293,389.4-293.6,389.5"/>
	<path class="st0" d="M-311.3,406.4c0,18.7-15.2,33.9-33.9,33.9s-33.9-15.2-33.9-33.9s15.2-33.9,33.9-33.9S-311.3,387.7-311.3,406.4   "/>
	<path class="st4" d="M-314.7,420.8c0,0.1,0,0.2,0,0.4c0.8-1.6,1.4-3.3,1.9-5C-314.1,417-314.7,418.7-314.7,420.8 M-311.3,406.2   c0-0.3,0-0.5,0-0.8c-0.7-0.2-1.2-1.2-1.2-3.3c0-1.3,0.2-2.2,0.5-2.7c-0.1-0.7-0.3-1.4-0.5-2c-1.6,0.7-2.3,2.5-2.3,4.8   c0,2.3,0.8,4.2,2.5,4.8l-1.7,0.8l0.1,0.3c-0.3-0.6-0.8-1.1-1.4-1.4l-0.1-9.2c1-0.5,1.6-1.6,1.9-3c-1-2.6-2.2-5-3.7-7.2v0.5   c-2.4,0.1-3.5,2.3-3.5,5.1c0,2.3,0.8,4.2,2.5,4.8l-1.7,0.8l0.1,0.3c-0.3-0.6-0.8-1.1-1.4-1.4l-0.1-9c1.3-0.4,2.1-1.6,2.4-3.3   c-0.7-0.9-1.4-1.7-2.2-2.5c0,0.3,0,0.6,0,0.9c0,2.2-0.5,3.3-1.3,3.3l0,0c-0.9,0-1.4-1.1-1.4-3.3c0-1.4,0.2-2.4,0.6-2.9   c-0.5-0.4-1-0.8-1.5-1.2c-0.9,0.9-1.4,2.4-1.4,4.2c0,2.2,0.7,4,2.3,4.7l-1.9,0.9l0.1,0.3c-0.2-0.4-0.6-0.8-0.9-1.1l0,0l-0.1-9.8   h-0.1c0.2-0.1,0.3-0.3,0.4-0.4c-0.5-0.4-1.1-0.7-1.7-1.1c-0.2,0.3-0.4,0.4-0.7,0.4l0,0c-0.6,0-1-0.5-1.3-1.5   c-0.8-0.4-1.6-0.8-2.4-1.1c0.2,2.1,1,3.8,2.7,4.2l-1.5,0.7l0.1,0.3c-0.4-0.7-1-1.3-1.8-1.5v-4c-0.7-0.3-1.5-0.5-2.2-0.8v4.8   c-1.7,0.6-2.6,2.5-2.5,4.9c0,2.2,0.7,4,2.3,4.7l-1.9,0.9l0.1,0.3c-0.2-0.4-0.6-0.8-0.9-1.1l0,0l-0.1-9.8h-0.1   c1.1-0.8,1.7-2.5,1.7-4.5c0-0.3,0-0.5,0-0.8c-0.8-0.2-1.5-0.4-2.3-0.5c0.1,0.4,0.1,0.8,0.1,1.3c0,2.2-0.5,3.3-1.3,3.3l0,0   c-0.9,0-1.4-1.1-1.4-3.3c0-0.7,0-1.3,0.1-1.7c-0.7-0.1-1.5-0.1-2.2-0.2c-0.1,0.6-0.2,1.3-0.2,2c0,2.4,0.9,4.4,2.8,4.9l-1.5,0.7   l0.1,0.3c-0.4-0.7-1-1.3-1.8-1.5v-6.4c-0.4,0-0.8,0-1.2,0c-0.3,0-0.7,0-1,0v6.4c-1.7,0.6-2.6,2.5-2.5,4.9c0,2.2,0.7,4,2.3,4.7   l-1.9,0.9l0.1,0.3c-0.2-0.4-0.6-0.8-0.9-1.1l0,0l-0.1-9.7h-0.1c1.1-0.8,1.7-2.4,1.7-4.5c0-0.6-0.1-1.3-0.2-1.9   c-0.7,0.1-1.5,0.2-2.2,0.3c0.1,0.5,0.1,1,0.1,1.6c0,2.2-0.5,3.3-1.3,3.3l0,0c-0.9,0-1.4-1.1-1.4-3.3c0-0.4,0-0.8,0.1-1.2   c-0.8,0.2-1.6,0.4-2.3,0.6c0,0.2,0,0.4,0,0.6c0,2.4,0.9,4.4,2.8,4.9l-1.5,0.7l0.1,0.3c-0.4-0.7-1-1.3-1.8-1.5v-4.8   c-0.7,0.2-1.5,0.5-2.2,0.8v4c-1.7,0.6-2.6,2.5-2.5,4.9c0,2.2,0.7,4,2.3,4.7l-1.9,0.9l0.1,0.3c-0.2-0.4-0.6-0.8-0.9-1.1l0,0   l-0.1-9.8h-0.1c0.9-0.7,1.4-1.9,1.6-3.4c-0.9,0.4-1.7,0.8-2.5,1.3c-0.2,0.7-0.6,1-1.1,1l0,0c-0.1,0-0.3,0-0.4-0.1   c-0.6,0.4-1.1,0.7-1.7,1.1c0.3,0.3,0.7,0.5,1.2,0.6l-1.5,0.7l0.1,0.3c-0.2-0.3-0.4-0.6-0.7-0.9c-0.5,0.4-1,0.8-1.5,1.3   c0.4,0.5,0.7,1.5,0.7,3c0,2.2-0.5,3.3-1.3,3.3l0,0c-0.9,0-1.4-1.1-1.4-3.3c0-0.4,0-0.7,0-1c-0.8,0.8-1.5,1.6-2.2,2.5   c0.3,1.5,1,2.7,2.1,3.3l-2.5,1.6l0.1,0.3c-0.2-0.4-0.6-0.8-0.9-1.1l0,0v-2.6c-0.9,1.2-1.7,2.5-2.5,3.8c0.1-0.1,0.3-0.1,0.4-0.1   c0.9,0,1.4,1.1,1.4,3.3c0,2.2-0.5,3.3-1.3,3.3l0,0c-0.9,0-1.4-1.1-1.4-3.3c0-0.6,0-1.2,0.1-1.6c-0.7,1.5-1.3,3-1.8,4.6   c0.4,0.9,1,1.6,1.9,1.9l-1.7,0.8l0.1,0.3c-0.2-0.4-0.5-0.8-0.9-1c-0.3,1.2-0.5,2.4-0.7,3.6c0,0.2,0,0.5,0,0.8   c0,1.1-0.1,1.9-0.3,2.4c0,0.5,0,1.1,0,1.6c0,2.1,0.2,4.2,0.6,6.2v-5.5c1.4-0.7,2.1-2.5,2.1-4.7c0-0.7-0.1-1.4-0.2-2l1.7-0.8l0,0   l0.1,7.2c-2.1,0.4-3,2.4-3,5c0,2.3,0.8,4.2,2.5,4.8l-1.7,0.8l0.1,0.3c0,0,0-0.1-0.1-0.1c0.2,0.5,0.4,1,0.6,1.6c0-0.1,0-0.1,0-0.2   l1.7-0.8l0,0v4.5c1.2,2.1,2.6,4.1,4.2,6c0-0.1-0.1-0.3-0.1-0.4l1.7-0.8l0,0v2.9c0.7,0.7,1.5,1.4,2.2,2v-6.7   c1.4-0.7,2.1-2.5,2.1-4.7c0-0.7-0.1-1.4-0.2-2l1.7-0.8l0,0v7.2c-2.1,0.4-3,2.4-3,5c0,1.1,0.2,2.1,0.6,3c1.5,1.1,3,2.1,4.7,3v-1.4   c1.4-0.7,2.1-2.5,2.1-4.7c0-0.7-0.1-1.4-0.2-2l1.7-0.8l0,0l0.1,7.2c-1.2,0.2-2.1,1.1-2.5,2.2c0.6,0.3,1.3,0.6,2,0.9   c0.2-1,0.6-1.5,1.2-1.5c0.8,0,1.2,0.8,1.4,2.4c0.8,0.2,1.5,0.5,2.3,0.6c0-0.6-0.1-1.3-0.2-1.8l1.7-0.8l0,0v3   c0.7,0.1,1.5,0.3,2.2,0.4v-5.1c1.4-0.7,2.1-2.5,2.1-4.7c0-0.7-0.1-1.4-0.2-2l1.7-0.8l0,0l0.1,7.2c-2.1,0.4-3,2.4-3,5   c0,0.2,0,0.4,0,0.5c0.8,0.1,1.5,0.1,2.3,0.2c0-0.2,0-0.5,0-0.8c0-2.2,0.5-3.3,1.4-3.3c0.9,0,1.4,1.1,1.4,3.3c0,0.3,0,0.5,0,0.8   c0.8,0,1.5-0.1,2.3-0.2c0-0.2,0-0.4,0-0.7c0-0.7-0.1-1.4-0.2-2l1.7-0.8l0,0v3.3c0.7-0.1,1.5-0.2,2.2-0.4v-4.7   c1.4-0.7,2.1-2.5,2.1-4.7c0-0.7-0.1-1.4-0.2-2l1.7-0.8l0,0v7.2c-2.1,0.4-3,2.4-3,5c0.8-0.2,1.5-0.4,2.3-0.6   c0.1-1.8,0.6-2.7,1.4-2.7c0.7,0,1.1,0.6,1.3,1.8c2.4-1,4.7-2.2,6.7-3.6c0.9-0.9,1.4-2.4,1.3-4.2c0-0.7-0.1-1.4-0.2-2l1.7-0.8l0,0   v4.8c0.8-0.7,1.5-1.3,2.2-2.1v-4.6c1.4-0.7,2.1-2.5,2.1-4.7c0-0.7-0.1-1.4-0.2-2l1.7-0.8l0,0l0.1,7.2c-1.9,0.3-2.9,2.1-3,4.4   c2-2.2,3.8-4.7,5.2-7.3v-6c1.4-0.7,2.1-2.5,2.1-4.7c0-0.7-0.1-1.4-0.2-2l1.7-0.8l0,0v2.9C-311.4,409.8-311.3,408-311.3,406.2    M-374.4,415.2L-374.4,415.2c-0.9,0-1.4-1.1-1.4-3.3s0.5-3.3,1.4-3.3s1.4,1.1,1.4,3.3S-373.5,415.2-374.4,415.2 M-372.9,398   c1.4-0.7,2.1-2.5,2.1-4.7c0-0.7-0.1-1.4-0.2-2l1.7-0.8l0,0l0.1,7.2c-2.1,0.4-3,2.4-3,5c0,2.3,0.8,4.2,2.5,4.8l-1.7,0.8l0.1,0.3   c-0.3-0.6-0.8-1.1-1.4-1.4L-372.9,398z M-371.5,426.8l0.1,0.3c-0.3-0.6-0.8-1.1-1.4-1.4v-9.1c1.4-0.7,2.1-2.5,2.1-4.7   c0-0.7-0.1-1.4-0.2-2l1.7-0.8l0,0l0.1,7.2c-2.1,0.4-3,2.4-3,5c0,2.3,0.8,4.2,2.5,4.8L-371.5,426.8z M-368.6,424.5L-368.6,424.5   c-0.9,0-1.4-1.1-1.4-3.3c0-2.2,0.5-3.3,1.4-3.3s1.4,1.1,1.4,3.3C-367.2,423.4-367.7,424.5-368.6,424.5 M-368.7,405.9L-368.7,405.9   c-0.9,0-1.4-1.1-1.4-3.3c0-2.2,0.5-3.3,1.4-3.3c0.9,0,1.4,1.1,1.4,3.3C-367.3,404.8-367.8,405.9-368.7,405.9 M-367.3,388.8   c1.7-0.6,2.5-2.4,2.5-4.9c0-0.7-0.1-1.4-0.2-2l1.7-0.8l0,0l0.1,7.1c-2.4,0.1-3.5,2.3-3.5,5.1c0,2.3,0.8,4.2,2.5,4.8l-1.7,0.8   l0.1,0.3c-0.3-0.6-0.8-1.1-1.4-1.4L-367.3,388.8z M-365.8,417.5l0.1,0.3c-0.3-0.6-0.8-1.1-1.4-1.4l-0.1-9.2   c1.4-0.7,2.1-2.5,2.1-4.7c0-0.7-0.1-1.4-0.2-2l1.7-0.8l0,0l0.1,7.2c-2.1,0.4-3,2.4-3,5c0,2.3,0.8,4.2,2.5,4.8L-365.8,417.5z    M-362.7,433.7L-362.7,433.7c-0.9,0-1.4-1.1-1.4-3.3s0.5-3.3,1.4-3.3c0.9,0,1.4,1.1,1.4,3.3C-361.4,432.6-361.9,433.7-362.7,433.7    M-362.9,415.1L-362.9,415.1c-0.9,0-1.4-1.1-1.4-3.3c0-2.2,0.5-3.3,1.4-3.3s1.4,1.1,1.4,3.3C-361.5,414-362,415.1-362.9,415.1    M-363,396.5L-363,396.5c-0.9,0-1.4-1.1-1.4-3.3c0-2.2,0.5-3.3,1.4-3.3s1.4,1.1,1.4,3.3C-361.6,395.4-362.1,396.5-363,396.5    M-353.2,383.8c0-0.7-0.1-1.4-0.2-2l1.7-0.8l0,0v7.1c-2.4,0.1-3.5,2.3-3.5,5.1c0,2.3,0.8,4.2,2.5,4.8l-1.7,0.8l0.1,0.3   c-0.3-0.6-0.8-1.1-1.4-1.4l-0.1-9C-354,388.2-353.2,386.3-353.2,383.8 M-352.6,416.6l-1.7,0.8l0.1,0.3c-0.3-0.6-0.8-1.1-1.4-1.4   l-0.1-9.2c1.4-0.7,2.1-2.5,2.1-4.7c0-0.7-0.1-1.4-0.2-2l1.7-0.8l0,0l0.1,7.2c-2.1,0.4-3,2.4-3,5C-355,414.1-354.3,416-352.6,416.6    M-356.9,380.6c0.9,0,1.4,1.1,1.4,3.3s-0.5,3.3-1.3,3.3l0,0c-0.9,0-1.4-1.1-1.4-3.3C-358.3,381.7-357.8,380.6-356.9,380.6    M-361.4,397.9c1.4-0.7,2.1-2.5,2.1-4.7c0-0.7-0.1-1.4-0.2-2l1.7-0.8l0,0l0.1,7.2c-2.1,0.4-3,2.4-3,5c0,2.3,0.8,4.2,2.5,4.8   l-1.7,0.8l0.1,0.3c-0.3-0.6-0.8-1.1-1.4-1.4L-361.4,397.9z M-359.9,426.7l0.1,0.3c-0.3-0.6-0.8-1.1-1.4-1.4l-0.1-9.2   c1.4-0.7,2.1-2.5,2.1-4.7c0-0.7-0.1-1.4-0.2-2l1.7-0.8l0,0l0.1,7.2c-2.1,0.4-3,2.4-3,5c0,2.3,0.8,4.2,2.5,4.8L-359.9,426.7z    M-357,424.4L-357,424.4c-0.9,0-1.4-1.1-1.4-3.3c0-2.2,0.5-3.3,1.4-3.3s1.4,1.1,1.4,3.3C-355.7,423.3-356.2,424.4-357,424.4    M-357.2,405.8L-357.2,405.8c-0.9,0-1.4-1.1-1.4-3.3c0-2.2,0.5-3.3,1.4-3.3c0.9,0,1.4,1.1,1.4,3.3   C-355.8,404.7-356.3,405.8-357.2,405.8 M-354.1,436l0.1,0.3c-0.3-0.6-0.8-1.1-1.4-1.4l-0.1-9.2c1.4-0.7,2.1-2.5,2.1-4.7   c0-0.7-0.1-1.4-0.2-2l1.7-0.8l0,0l0.1,7.2c-2.1,0.4-3,2.4-3,5c0,2.3,0.8,4.2,2.5,4.8L-354.1,436z M-351.2,433.6L-351.2,433.6   c-0.9,0-1.4-1.1-1.4-3.3c0-2.2,0.5-3.3,1.4-3.3c0.9,0,1.4,1.1,1.4,3.3C-349.9,432.5-350.3,433.6-351.2,433.6 M-351.3,415.1   L-351.3,415.1c-0.9,0-1.4-1.1-1.4-3.3c0-2.2,0.5-3.3,1.4-3.3c0.9,0,1.4,1.1,1.4,3.3C-350,413.9-350.5,415-351.3,415.1    M-351.5,396.5L-351.5,396.5c-0.9,0-1.4-1.1-1.4-3.3c0-2.2,0.5-3.3,1.4-3.3s1.4,1.1,1.4,3.3C-350.1,395.3-350.6,396.4-351.5,396.5    M-341.7,383.7c0-0.7-0.1-1.4-0.2-2l1.7-0.8l0,0l0.1,7.1c-2.4,0.1-3.5,2.3-3.5,5.1c0,2.3,0.8,4.2,2.5,4.8l-1.7,0.8l0.1,0.3   c-0.3-0.6-0.8-1.1-1.4-1.4l-0.1-9C-342.5,388.1-341.7,386.2-341.7,383.7 M-341,416.5l-1.7,0.8l0.1,0.3c-0.3-0.6-0.8-1.1-1.4-1.4   l-0.1-9.2c1.4-0.7,2.1-2.5,2.1-4.7c0-0.7-0.1-1.4-0.2-2l1.7-0.8l0,0l0.1,7.2c-2.1,0.4-3,2.4-3,5C-343.5,414-342.7,415.9-341,416.5    M-345.4,380.5c0.9,0,1.4,1.1,1.4,3.3c0,2.2-0.5,3.3-1.3,3.3l0,0c-0.9,0-1.4-1.1-1.4-3.3C-346.8,381.6-346.2,380.5-345.4,380.5    M-349.9,397.8c1.4-0.7,2.1-2.5,2.1-4.7c0-0.7-0.1-1.4-0.2-2l1.7-0.8l0,0v7.2c-2.1,0.4-3,2.4-3,5c0,2.3,0.8,4.2,2.5,4.8l-1.7,0.8   l0.1,0.3c-0.3-0.6-0.8-1.1-1.4-1.4L-349.9,397.8z M-348.4,426.6l0.1,0.3c-0.3-0.6-0.8-1.1-1.4-1.4l-0.1-9.2   c1.4-0.7,2.1-2.5,2.1-4.7c0-0.7-0.1-1.4-0.2-2l1.7-0.8l0,0l0.1,7.2c-2.1,0.4-3,2.4-3,5c0,2.3,0.8,4.2,2.5,4.8L-348.4,426.6z    M-345.5,424.3L-345.5,424.3c-0.9,0-1.4-1.1-1.4-3.3c0-2.2,0.5-3.3,1.4-3.3s1.4,1.1,1.4,3.3C-344.2,423.2-344.6,424.3-345.5,424.3    M-345.7,405.7L-345.7,405.7c-0.9,0-1.4-1.1-1.4-3.3s0.5-3.3,1.4-3.3c0.9,0,1.4,1.1,1.4,3.3S-344.8,405.7-345.7,405.7    M-342.6,435.9l0.1,0.3c-0.3-0.6-0.8-1.1-1.4-1.4l-0.1-9.2c1.4-0.7,2.1-2.5,2.1-4.7c0-0.7-0.1-1.4-0.2-2l1.7-0.8l0,0l0.1,7.2   c-2.1,0.4-3,2.4-3,5c0,2.3,0.8,4.2,2.5,4.8L-342.6,435.9z M-339.7,433.6L-339.7,433.6c-0.9,0-1.4-1.1-1.4-3.3   c0-2.2,0.5-3.3,1.4-3.3c0.9,0,1.4,1.1,1.4,3.3C-338.3,432.4-338.8,433.6-339.7,433.6 M-339.8,415L-339.8,415   c-0.9,0-1.4-1.1-1.4-3.3c0-2.2,0.5-3.3,1.4-3.3c0.9,0,1.4,1.1,1.4,3.3C-338.5,413.9-338.9,415-339.8,415 M-340,396.4L-340,396.4   c-0.9,0-1.4-1.1-1.4-3.3c0-2.2,0.5-3.3,1.4-3.3s1.4,1.1,1.4,3.3C-338.6,395.3-339.1,396.4-340,396.4 M-326.9,397.6   c1.4-0.7,2.1-2.5,2.1-4.7c0-0.7-0.1-1.4-0.2-2l1.7-0.8l0,0l0.1,7.2c-2.1,0.4-3,2.4-3,5c0,2.3,0.8,4.2,2.5,4.8l-1.7,0.8l0.1,0.3   c-0.3-0.6-0.8-1.1-1.4-1.4L-326.9,397.6z M-330.2,383.6c0-0.7-0.1-1.4-0.2-2l1.7-0.8l0,0v7.1c-2.4,0.1-3.5,2.3-3.5,5.1   c0,2.3,0.8,4.2,2.5,4.8l-1.7,0.8l0.1,0.3c-0.3-0.6-0.8-1.1-1.4-1.4l-0.1-9C-331,388-330.2,386.1-330.2,383.6 M-329.5,416.4   l-1.7,0.8l0.1,0.3c-0.3-0.6-0.8-1.1-1.4-1.4l-0.1-9.2c1.4-0.7,2.1-2.5,2.1-4.7c0-0.7-0.1-1.4-0.2-2l1.7-0.8l0,0v7.2   c-2.1,0.4-3,2.4-3,5C-332,413.9-331.2,415.8-329.5,416.4 M-333.9,380.4c0.9,0,1.4,1.1,1.4,3.3c0,2.2-0.5,3.3-1.3,3.3l0,0   c-0.9,0-1.4-1.1-1.4-3.3C-335.2,381.5-334.7,380.4-333.9,380.4 M-338.4,397.7c1.4-0.7,2.1-2.5,2.1-4.7c0-0.7-0.1-1.4-0.2-2l1.7-0.8   l0,0l0.1,7.2c-2.1,0.4-3,2.4-3,5c0,2.3,0.8,4.2,2.5,4.8l-1.7,0.8l0.1,0.3c-0.3-0.6-0.8-1.1-1.4-1.4L-338.4,397.7z M-336.9,426.6   l0.1,0.3c-0.3-0.6-0.8-1.1-1.4-1.4l-0.1-9.2c1.4-0.7,2.1-2.5,2.1-4.7c0-0.7-0.1-1.4-0.2-2l1.7-0.8l0,0l0.1,7.2c-2.1,0.4-3,2.4-3,5   c0,2.3,0.8,4.2,2.5,4.8L-336.9,426.6z M-334,424.2L-334,424.2c-0.9,0-1.4-1.1-1.4-3.3s0.5-3.3,1.4-3.3s1.4,1.1,1.4,3.3   S-333.1,424.2-334,424.2 M-334.1,405.6L-334.1,405.6c-0.9,0-1.4-1.1-1.4-3.3c0-2.2,0.5-3.3,1.4-3.3s1.4,1.1,1.4,3.3   C-332.8,404.5-333.3,405.6-334.1,405.6 M-331,436.2c-0.3-0.6-0.8-1.1-1.4-1.4l-0.1-9.2c1.4-0.7,2.1-2.5,2.1-4.7   c0-0.7-0.1-1.4-0.2-2l1.7-0.8l0,0l0.1,7.2c-2.1,0.4-3,2.4-3,5c0,2.3,0.8,4.2,2.5,4.8l-1.7,0.8V436.2z M-328.2,433.5L-328.2,433.5   c-0.9,0-1.4-1.1-1.4-3.3c0-2.2,0.5-3.3,1.4-3.3c0.9,0,1.4,1.1,1.4,3.3C-326.8,432.4-327.3,433.5-328.2,433.5 M-328.3,414.9   L-328.3,414.9c-0.9,0-1.4-1.1-1.4-3.3c0-2.2,0.5-3.3,1.4-3.3c0.9,0,1.4,1.1,1.4,3.3C-327,413.8-327.4,414.9-328.3,414.9    M-328.4,396.3L-328.4,396.3c-0.9,0-1.4-1.1-1.4-3.3c0-2.2,0.5-3.3,1.4-3.3s1.4,1.1,1.4,3.3C-327.1,395.2-327.6,396.3-328.4,396.3    M-325.4,426.5l0.1,0.3c-0.3-0.6-0.8-1.1-1.4-1.4l-0.1-9.2c1.4-0.7,2.1-2.5,2.1-4.7c0-0.7-0.1-1.4-0.2-2l1.7-0.8l0,0l0.1,7.2   c-2.1,0.4-3,2.4-3,5c0,2.3,0.8,4.2,2.5,4.8L-325.4,426.5z M-322.5,424.1L-322.5,424.1c-0.9,0-1.4-1.1-1.4-3.3   c0-2.2,0.5-3.3,1.4-3.3s1.4,1.1,1.4,3.3C-321.1,423-321.6,424.1-322.5,424.1 M-322.6,405.5L-322.6,405.5c-0.9,0-1.4-1.1-1.4-3.3   c0-2.2,0.5-3.3,1.4-3.3s1.4,1.1,1.4,3.3C-321.3,404.4-321.7,405.5-322.6,405.5 M-319.7,417.1l0.1,0.3c-0.3-0.6-0.8-1.1-1.4-1.4   l-0.1-9.2c1.4-0.7,2.1-2.5,2.1-4.7c0-0.7-0.1-1.4-0.2-2l1.7-0.8l0,0v7.2c-2.1,0.4-3,2.4-3,5c0,2.3,0.8,4.2,2.5,4.8L-319.7,417.1z    M-316.8,414.8L-316.8,414.8c-0.9,0-1.4-1.1-1.4-3.3c0-2.2,0.5-3.3,1.4-3.3c0.9,0,1.4,1.1,1.4,3.3   C-315.4,413.7-315.9,414.8-316.8,414.8 M-316.9,396.2L-316.9,396.2c-0.9,0-1.4-1.1-1.4-3.3s0.5-3.3,1.4-3.3s1.4,1.1,1.4,3.3   C-315.6,395.1-316,396.2-316.9,396.2"/>
	<path class="st5" d="M-383.9,416.6c-4.5-4.2-8.5-1.8-12.7-4.3c-6.3-3.7-5.3-10.8-4.7-17.2c4.8,8,9.7,6.5,13.6,10.1   C-385.6,407.3-386.3,410.7-383.9,416.6"/>
	<path class="st5" d="M-382,417.3c1.5-6.2,5.1-7,7.7-10.6c3.9-5.3,1.9-10.8-0.2-16.2c-3.6,5.7-3.9,4-8.3,10.9   C-384.2,403.7-384.5,409.1-382,417.3"/>
	<path class="st5" d="M-385.7,404.6c0.8-7,7.4-7.7,3.4-12.9c-4.5-5.8-14-7.3-20.4-7.2c7.2,5.8,3,12.6,8,14.6   C-390.6,400.9-389.3,401.3-385.7,404.6"/>
	<path class="st5" d="M-379.3,427c-3.5-1.3-9.4-1.1-12.3-2.7c-4.8-2.6-5.7-5.9-6.1-10.7c3.1,2.8,7.8,1.5,11.4,3.3   C-382,419-383.2,422.7-379.3,427"/>
	<path class="st5" d="M-373.4,434c-3.9-0.5-6.3,1.8-10,0.3c-3.9-1.5-6.6-4.1-8.9-8.3c4.6,2.2,6.5,1.6,10.7,2.3   C-378.7,428.9-376.1,430.9-373.4,434"/>
	<path class="st5" d="M-365.9,440.5c-3.6-0.2-4.6,0.2-7.7,0.8c-3.5,0.7-7.9-2.1-10.4-5.5c4.7,1.5,7.4-0.6,10.3-0.3   C-369.8,435.9-368,439-365.9,440.5"/>
	<path class="st5" d="M-358.4,444.1c-3.5,0.7-3,1.7-6.2,2.3c-4,0.7-6.9,0-10.8-3.3c4.5,0.4,5.2-1,8.7-1.1   C-363.9,441.9-360.1,443.3-358.4,444.1"/>
	<path class="st5" d="M-351.2,446.1c-2.7,1.4-2.1,2.5-5.6,4c-2.7,1.2-8.2-0.5-11-1.9c4.3,0.3,5.7-0.8,7.3-1.6   C-357.4,444.9-354,445.4-351.2,446.1"/>
	<path class="st5" d="M-376.3,428.2c-2.9-3.4-4.9-6.6-4.2-9.8c0.8-3.9,5.7-6.5,8.2-11.4c0.3,4,1.1,7.1-0.5,12.5   C-373.5,422.2-376.3,423.3-376.3,428.2"/>
	<path class="st5" d="M-369.6,435.5c-1.6-0.9-5.2-4.3-5.1-6.9c0.1-5,4.2-5.5,4.3-12.8c2.6,5.6,3,7.1,3,9.9   C-367.4,429-369.9,430.6-369.6,435.5"/>
	<path class="st5" d="M-361.6,441.2c-1.9-1.1-5.7-3-6.2-6.2c-0.5-3.5,2.3-5.7,2.2-10.5c3.2,4.3,3.9,6.1,4,9.3   C-361.5,436-362.9,437.4-361.6,441.2"/>
	<path class="st5" d="M-352.5,444.4c-3.1-0.6-7.4-2.4-7.7-4.5c-0.6-3.4,1.2-5.1-0.1-9c2.6,2.7,3.9,2.9,5.2,6.3   C-354.1,439.8-354.9,442-352.5,444.4"/>
	<path class="st5" d="M-345.4,446.5c-1.2,1.2-1.8,2.9-3.1,3.9c-1.8,1.6-4.8,1.5-7.5,0.8c2.2-1.1,3.3-2.1,4.2-3.1   C-350.6,446.8-348.4,446.1-345.4,446.5"/>
	<path class="st5" d="M-346.2,445.2c-2.3,0.2-4.4-0.6-5.2-1.6c-1.2-1.5-0.7-3.9-2-6.8c2.4,1.3,4,2.5,4.9,3.7   C-347.7,441.7-347.8,443.4-346.2,445.2"/>
	<path class="st5" d="M-340.8,446.6c-0.9,1.2-0.3,3.2-1.4,4.2c-1.6,1.4-3.9,1.6-6.4,1.1c1.1-0.6,2.3-1,3.4-2.9   C-344.1,446.9-343.7,446.2-340.8,446.6"/>
	<path class="st5" d="M-340.6,445.1c-2.1,0.2-3.9,0.5-5-1.6c-0.7-1.4-0.4-2.2-2.3-4.5c2.9,0.6,4.4,1.5,5.1,2.6   C-342.1,442.7-342.4,443.5-340.6,445.1"/>
	<path class="st6" d="M-323.3,400.3c-0.3-3.4-0.4-5-9.5-5c-1.7,0-4.4,0-5.9,0.4c-0.2,2.8-0.2,8.3-0.2,9.5v4.1   c2.5,0.2,3.3,0.3,5.9,0.3c7.3,0,7.3-0.6,7.3-3.3l1-0.1c0.1,0.8,0.1,1.4,0.1,3.1c0,0.4,0,2.7-0.1,5.4h-1.1c0-0.7,0-2.6-0.4-2.9   c-0.8-0.5-4.1-1.1-8.1-1.1c-1.5,0-3.1,0-4.6,0.2c-0.1,2.4-0.1,5.4-0.1,8.7c0,5.6,0,6,5.6,6.7v1c-1.1-0.1-2.3-0.2-5.6-0.2h-2.5   c-0.5,0-2.8,0.1-4.8,0.2l0.1-0.8c2.4-0.4,2.9-1.1,3.1-2.3c0.6-3.1,0.6-8.1,0.6-14.1c0-2.5,0-11.9-0.7-13.7   c-0.5-1.3-1.7-1.4-3.6-1.6V394h3.3c1.3,0,3.5,0.2,4.7,0.2c2.1,0,4.2,0.1,5,0.1c4.4,0,9.2-0.2,11.8-0.4c-0.2,2.2-0.2,4.1-0.2,6.5   h-1.1V400.3z"/>
	<path class="st6" d="M-347,394.7c-0.4-5.8-6.1-6.7-8.8-6.7c-6.8,0-7,5.5-7,6.5c0,4.5,3.7,5.9,7.9,7.5c4.1,1.6,10,3.8,10,10.2   c0,4.8-3.8,8.8-11.5,8.8c-0.6,0-3.7,0-7.6-1.1c-0.5-0.1-0.7-0.2-0.8-0.2c-0.7,0-0.6,0.6-0.5,0.9l-1.1-0.1c0.1-2.9-0.7-6.4-1.4-8.6   c0.4-0.1,0.5-0.2,0.8-0.2c1,3.2,1.4,4.4,3.4,5.5c1.5,0.8,4.8,2.3,8.6,2.3c1.1,0,6.6,0,6.6-5.9c0-5.1-3.8-6.6-8.4-8.3   c-5.3-2-9.3-4.1-9.3-9.3c0-4.9,3.6-9.1,11.1-9.1c1,0,2.7,0,5.4,0.6c1.1,0.2,1.2,0.2,1.3,0.2c0.7,0,1.2-0.3,1.7-0.6   c0.2,0,0.4,0.1,0.5,0.1c-0.2,1.1-0.4,2.8-0.4,4.1c0.1,0.9,0.3,2.9,0.3,3.4H-347z"/>
	<path class="st7" d="M-335,391.2c-0.4-5.8-6.1-6.7-8.8-6.7c-6.8,0-7,5.5-7,6.5c0,4.5,3.7,5.9,7.9,7.5c4.1,1.6,10,3.8,10,10.2   c0,4.8-3.8,8.8-11.5,8.8c-0.6,0-3.7,0-7.6-1.1c-0.5-0.1-0.7-0.2-0.8-0.2c-0.7,0-0.6,0.6-0.5,0.9l-1.1-0.1c0.1-2.9-0.7-6.4-1.4-8.6   c0.4-0.1,0.5-0.2,0.8-0.2c1,3.2,1.4,4.4,3.4,5.5c1.5,0.8,4.8,2.3,8.6,2.3c1.1,0,6.6,0,6.6-5.9c0-5.1-3.8-6.6-8.4-8.3   c-5.3-2-9.3-4.1-9.3-9.3c0-4.9,3.6-9.1,11.1-9.1c1,0,2.7,0,5.3,0.6c1.1,0.2,1.2,0.2,1.3,0.2c0.7,0,1.2-0.3,1.7-0.6   c0.2,0,0.4,0.1,0.5,0.1c-0.2,1.1-0.4,2.8-0.4,4.1c0.1,0.9,0.3,2.9,0.3,3.4H-335z"/>
</g>
<g>
	<path class="st8" d="M-461.3,471.3c-0.1-1.7-1.8-2-2.6-2c-2,0-2.1,1.6-2.1,1.9c0,1.3,1.1,1.8,2.4,2.3c1.2,0.5,3,1.1,3,3.1   c0,1.4-1.1,2.6-3.4,2.6c-0.2,0-1.1,0-2.3-0.3c-0.1,0-0.2,0-0.3,0c-0.2,0-0.2,0.2-0.2,0.3l-0.3,0c0-0.9-0.2-1.9-0.4-2.6   c0.1,0,0.1,0,0.3-0.1c0.3,1,0.4,1.3,1,1.6c0.4,0.2,1.4,0.7,2.6,0.7c0.3,0,2,0,2-1.8c0-1.5-1.1-2-2.5-2.5c-1.6-0.6-2.8-1.2-2.8-2.8   c0-1.5,1.1-2.7,3.3-2.7c0.3,0,0.8,0,1.6,0.2c0.3,0.1,0.3,0.1,0.4,0.1c0.2,0,0.4-0.1,0.5-0.2c0,0,0.1,0,0.2,0c0,0.3-0.1,0.8-0.1,1.2   c0,0.3,0.1,0.9,0.1,1L-461.3,471.3z"/>
	<path class="st8" d="M-457.4,473c-0.7,0.1-0.8,0.1-0.8,0.3c0,0.3,0.4,1.5,0.7,2l0.9,2.3c0.1-0.2,0.5-1.2,0.6-1.4   c0.1-0.2,0.6-1.2,0.7-1.4c-0.7-1.7-0.9-1.7-1.4-1.8v-0.3c0.6,0,1.1,0,1.3,0c0.2,0,0.9,0,1.5,0l0,0.3c-0.5,0-0.8,0.1-0.8,0.4   c0,0.5,1.1,3.1,1.6,4.2c0.3-0.6,1.3-3.6,1.3-3.9c0-0.6-0.7-0.6-1.1-0.6v-0.3c0.7,0,1.3,0,1.6,0c0.2,0,1,0,1.1,0l0,0.2   c-0.4,0-0.9,0-1.3,1.3l-1.6,4.3c-0.1,0.2-0.2,0.6-0.2,0.7h-0.3c-0.1-0.6-0.7-2.1-0.7-2.1l-0.8-2l-0.5,1c-0.7,1.5-0.8,1.9-1.1,3   h-0.3c-0.1-0.3-1.3-4.1-2-5.5c-0.4-0.7-0.5-0.7-1.2-0.8v-0.3c0.3,0,1.5,0,1.7,0c0.4,0,0.6,0,1.3,0V473z"/>
	<path class="st8" d="M-449.8,472.7c0.4,0,1.7,0,2.2,0c0.8,0,2,0,2.8-0.1c0,0.2,0,0.3,0,0.6c0,0.1-0.1,0.7-0.1,0.8l-0.3,0   c0-0.6,0-1-1.5-1c-0.3,0-1,0.1-1.3,0.1c-0.1,0.5-0.1,1.2-0.1,1.6c0,0.1,0,0.5,0,0.9c0.1,0,1.1,0.1,2.1-0.1c0.2,0,0.3-0.1,0.4-0.6   h0.2c0,0.9,0,1.1,0,2h-0.2c-0.2-0.8-0.3-0.9-1.6-0.9c-0.2,0-0.6,0-1,0.1l0,1.2c0,0.8,0,1.1,0.1,1.3c0.3,0.1,0.6,0.2,1.1,0.2   c1.4,0,2-0.5,2.2-1.2l0.2,0c-0.1,1-0.3,1.4-0.5,1.6c-0.4,0-2.1,0-2.5,0c-0.6,0-1.6,0-2.5,0.1l0-0.3c0.4,0,0.7-0.1,0.8-0.4   c0.1-0.4,0.1-1.8,0.1-2.6c0-0.5,0-2.4-0.1-2.7c0-0.2-0.1-0.2-0.6-0.3V472.7z"/>
	<path class="st8" d="M-443.6,478.8c0.5,0,0.7-0.1,0.7-0.3c0.1-0.3,0.1-1.8,0.1-2.3c0-0.9-0.1-2.6-0.1-2.8c0-0.3-0.3-0.4-0.7-0.4   v-0.3h1.1c0.5,0,0.8,0,1.2,0c0.4,0,0.7-0.1,1-0.1c2.4,0,3.7,1.7,3.7,3.3c0,1.4-1,3.2-3.8,3.2c-0.1,0-0.6,0-1,0c-0.4,0-0.8,0-1,0   c-0.2,0-0.9,0-1.2,0V478.8z M-440.6,478.8c1.5,0,2.8-1,2.8-2.9c0-1.6-1.1-2.9-2.8-2.9c-0.1,0-0.6,0-1.1,0.1c0,0.4-0.1,1.2-0.1,2.9   c0,1.4,0,2,0.1,2.6C-441.4,478.7-441,478.8-440.6,478.8z"/>
	<path class="st8" d="M-436,472.7l0.6,0c0.2,0,0.5,0,1,0c0.5,0,0.8,0,1.1,0h0.7v0.3c-0.2,0-0.8-0.1-1,0.3c-0.1,0.3-0.2,0.9-0.2,3.5   c0,0.4,0,1.6,0.1,1.8c0.1,0.3,0.4,0.3,1,0.3l0,0.3c-0.2,0-1.3,0-1.5,0h-0.9c-0.2,0-0.8,0-1,0v-0.2c0.2,0,1-0.1,1.1-0.4   c0.2-0.3,0.2-1.8,0.2-2.3c0-0.5,0-2.5-0.1-2.8c-0.1-0.2-0.2-0.4-1.1-0.4V472.7z"/>
	<path class="st8" d="M-428.2,472.7l0.2,0c0,0.1-0.1,0.5-0.1,0.8c0,0.1,0.1,0.7,0.1,0.8h-0.2c-0.1-0.3-0.1-0.6-0.4-0.8   c-0.1-0.1-0.6-0.5-1.2-0.5c-0.8,0-1.2,0.5-1.2,1.1c0,0.7,0.7,1,1.4,1.3c0.8,0.3,2,0.8,2,2c0,0.9-0.9,1.8-2.3,1.8   c-0.5,0-0.9-0.1-1-0.1c-0.1,0-0.3-0.1-0.4-0.1c-0.1,0-0.2,0.1-0.2,0.2l-0.2,0c0-0.8-0.1-1.2-0.3-1.9h0.3c0,0.2,0.2,0.6,0.5,1   c0.3,0.2,1,0.6,1.7,0.6c0.8,0,1.2-0.6,1.2-1c0-0.9-0.6-1.1-1.7-1.6c-0.7-0.3-1.6-0.7-1.6-1.7c0-1,0.9-1.8,2.2-1.8   c0.4,0,0.7,0,1.3,0.2L-428.2,472.7z"/>
	<path class="st8" d="M-426.2,475.3c0-2.3-0.1-2.3-0.9-2.3l0-0.3c0.1,0,0.3,0,0.5,0s0.4,0,0.7,0c0.3,0,0.5,0,0.7,0   c0.3,0,0.6,0,0.9,0l0,0.3c-0.9,0-0.9,0.1-1,1.6l0,1l2.1,0c0.3,0,1.5,0,1.8,0v-0.8c0-0.3,0-1.3-0.2-1.6c-0.1-0.1-0.2-0.2-0.7-0.3   v-0.2h0.4c0.1,0,0.3,0,0.5,0c0.2,0,0.3,0,0.6,0c0.4,0,0.9,0,1.1-0.1l0,0.3c-0.5,0.1-0.6,0.2-0.7,0.4c0,0.4-0.1,1.1-0.1,1.8l0,1.9   c0,1.5,0,1.7,0.8,1.9v0.3c-0.4,0-0.7,0-0.9-0.1c-0.2,0-0.3,0-0.5,0c-0.5,0-0.7,0-1.2,0.1v-0.3c0.7-0.1,0.8-0.1,0.8-1.7v-1   c-0.5,0-3.2,0-3.8,0v1.1c0,1,0,1.4,0.3,1.5c0.1,0.1,0.4,0.1,0.7,0.1l0,0.3c-0.3,0-0.6-0.1-0.8-0.1c-0.3,0-0.5,0-0.7,0   c-0.5,0-0.8,0-1.3,0.1v-0.3c0.5-0.1,0.7-0.1,0.8-0.4c0.1-0.3,0.1-1.6,0.1-1.9L-426.2,475.3z"/>
	<path class="st8" d="M-408.1,471c-0.1-1-0.1-1.5-2.8-1.5c-0.5,0-1.3,0-1.8,0.1c-0.1,0.8-0.1,2.5-0.1,2.8v1.2c0.7,0.1,1,0.1,1.8,0.1   c2.2,0,2.2-0.2,2.2-1l0.3,0c0,0.3,0,0.4,0,0.9c0,0.1,0,0.8,0,1.6h-0.3c0-0.2,0-0.8-0.1-0.9c-0.2-0.2-1.2-0.3-2.4-0.3   c-0.5,0-0.9,0-1.4,0c0,0.7,0,1.6,0,2.6c0,1.7,0,1.8,1.7,2v0.3c-0.2,0-0.3,0-0.6,0c-0.3,0-0.6,0-1.1,0h-0.8c-0.1,0-0.8,0-1.4,0.1   l0-0.3c0.7-0.1,0.9-0.3,0.9-0.7c0.2-0.9,0.2-2.4,0.2-4.2c0-0.8,0-3.6-0.2-4.1c-0.1-0.4-0.5-0.4-1.1-0.5V469h1   c0.4,0,1.1,0.1,1.4,0.1c0.6,0,1.3,0,1.5,0c1.3,0,2.7,0,3.5-0.1c-0.1,0.6-0.1,1.2,0,2H-408.1z"/>
	<path class="st8" d="M-404.4,472.6c2,0,3.3,1.6,3.3,3.3c0,1.8-1.6,3.3-3.4,3.3c-1.9,0-3.2-1.5-3.2-3.3   C-407.7,474.1-406.2,472.6-404.4,472.6z M-404.1,478.8c1.2,0,1.9-1.2,1.9-2.3c0-1.8-1-3.5-2.6-3.5c-1.2,0-2,1.1-2,2.3   C-406.7,477-405.7,478.8-404.1,478.8z"/>
	<path class="st8" d="M-398.9,476.6c0,0.7,0,2.2,1.8,2.2c2,0,2.2-1.3,2.2-3.5v-0.6c0,0,0-1.3-0.3-1.5c-0.2-0.2-0.5-0.2-0.8-0.2v-0.3   c0.3,0,0.5,0,1.2,0c0.8,0,0.9,0,1.2,0l0,0.3c-0.8,0-0.8,0.3-0.8,0.8l0,0.9c0,3.2-0.3,4.5-2.9,4.5c-1.7,0-2.6-0.8-2.6-2.2   c0-0.3,0.1-1.8,0.1-2.1c0-0.3,0-1.7-0.2-1.9c-0.1-0.1-0.3-0.1-0.7-0.1l0-0.3c0.1,0,1,0,1.4,0c0.2,0,1.2,0,1.6,0v0.3   c-1,0.1-1.1,0.2-1.1,2.4V476.6z"/>
	<path class="st8" d="M-387.6,476.6c0.1,0.1,0.7,0.7,0.8,0.8c0-0.3,0-1.1,0-1.4c0-3-0.1-3-1.2-3.1l0-0.2c0.1,0,0.3,0,0.4,0   c0.2,0,0.4,0,0.7,0.1c0.3,0,0.6,0,1.3,0v0.2c-0.3,0-0.8,0-0.8,0.5c0,0.3-0.1,2.3-0.1,3.2c0,0.6,0,2,0,2.5l-0.3,0   c-0.3-0.6-0.8-1.2-2.4-2.7l-0.9-0.8c0,0-1.1-1.1-1.5-1.5l0,0.5l0,2.7c0,1.1,0,1.2,1.2,1.5v0.3c-0.1,0-0.2,0-0.4,0   c-0.2,0-0.5,0-0.7,0c-0.2,0-0.5,0-0.7,0c-0.2,0-0.5,0-0.7,0v-0.2c0.1,0,0.2,0,0.4-0.1c0.2,0,0.4-0.1,0.5-0.5c0-0.4,0.1-1.6,0.1-2.1   l0-1.1c0-1.8-0.2-2-1.1-2.2l0-0.3c0.2,0,0.3,0,0.5,0c0.2,0,0.3,0,0.5,0c0.3,0,0.4,0,0.7,0c0.8,1,2.4,2.6,2.9,3.1L-387.6,476.6z"/>
	<path class="st8" d="M-384.8,478.8c0.5,0,0.6-0.1,0.7-0.3c0.1-0.3,0.1-1.8,0.1-2.3c0-0.9-0.1-2.6-0.1-2.8c0-0.3-0.3-0.4-0.7-0.4   v-0.3h1.1c0.5,0,0.8,0,1.2,0c0.4,0,0.7-0.1,1-0.1c2.4,0,3.7,1.7,3.7,3.3c0,1.4-1,3.2-3.8,3.2c-0.1,0-0.6,0-1,0c-0.4,0-0.8,0-1,0   c-0.2,0-0.9,0-1.2,0V478.8z M-381.7,478.8c1.5,0,2.8-1,2.8-2.9c0-1.6-1.1-2.9-2.8-2.9c-0.1,0-0.6,0-1.1,0.1c0,0.4-0.1,1.2-0.1,2.9   c0,1.4,0,2,0.1,2.6C-382.5,478.7-382.1,478.8-381.7,478.8z"/>
	<path class="st8" d="M-375.5,479.1c-0.1,0-0.3,0-0.5,0c-0.2,0-0.4,0-0.6,0c-0.2,0-0.4,0-0.5,0c-0.2,0-0.3,0-0.5,0l0-0.2   c0.5,0,0.7-0.4,1.1-1.2l1.5-3.6c0.2-0.4,0.4-1.1,0.5-1.5h0.2c0.2,0.7,0.5,1.5,0.7,1.9l1.1,2.8c0.5,1.3,0.8,1.5,1.3,1.5v0.2   c-0.3,0-0.7,0-1.2,0c-0.5,0-1,0-1.5,0.1l0-0.2c0.7-0.1,0.7-0.2,0.7-0.3c0-0.2-0.1-0.6-0.2-0.7l-0.3-0.9c-0.3,0-0.7-0.1-1-0.1   c-0.6,0-0.9,0-1.1,0.1c-0.2,0.4-0.6,1.3-0.6,1.6c0,0.2,0.3,0.3,0.8,0.4V479.1z M-375.6,476.4c0.6,0,0.9,0,0.9,0c0.2,0,0.7,0,0.9,0   l-0.9-2.1c-0.2,0.5-0.3,0.6-0.4,1L-375.6,476.4z"/>
	<path class="st8" d="M-367,479.1c-0.3,0-0.6,0-0.8,0c-0.3,0-0.6,0-0.7,0c-0.5,0-0.8,0-1,0c-0.2,0-0.4,0-0.6,0l0-0.2   c0.1,0,0.3,0,0.5-0.1c0.5-0.1,0.6-0.2,0.6-0.4c0.1-0.4,0.1-2.3,0.1-2.9c0-0.8,0-1.6-0.1-2.4c-0.4,0-0.8,0-0.9,0   c-1.1,0-1.4,0.3-1.6,0.8l-0.2-0.1c0-0.1,0.4-1.2,0.5-1.3h0.2c0,0.1,0.1,0.1,0.5,0.2c0.4,0,0.8,0,1.4,0h1.8c0.5,0,1.2,0,1.4,0   c0.4,0,0.4-0.1,0.6-0.2l0.2,0.1c-0.1,0.4-0.2,0.6-0.3,1.2l-0.3,0l0-0.5c-0.3-0.2-0.5-0.3-1.4-0.3c-0.6,0-0.6,0-0.6,0.2   c0,0.5-0.1,2.5-0.1,2.9c0,0.5,0,2.2,0.2,2.4c0.1,0.1,0.4,0.2,0.6,0.2c0.1,0,0.2,0,0.3,0L-367,479.1z"/>
	<path class="st8" d="M-364.5,472.7l0.6,0c0.2,0,0.5,0,1,0c0.5,0,0.8,0,1.1,0h0.7v0.3c-0.2,0-0.8-0.1-1,0.3   c-0.1,0.3-0.2,0.9-0.2,3.5c0,0.4,0,1.6,0.1,1.8c0.1,0.3,0.4,0.3,1,0.3l0,0.3c-0.2,0-1.3,0-1.5,0h-0.9c-0.2,0-0.8,0-1,0v-0.2   c0.2,0,1-0.1,1.1-0.4c0.2-0.3,0.2-1.8,0.2-2.3c0-0.5,0-2.5-0.1-2.8c-0.1-0.2-0.2-0.4-1.1-0.4V472.7z"/>
	<path class="st8" d="M-357.1,472.6c2,0,3.3,1.6,3.3,3.3c0,1.8-1.6,3.3-3.4,3.3c-1.9,0-3.2-1.5-3.2-3.3   C-360.4,474.1-358.9,472.6-357.1,472.6z M-356.8,478.8c1.2,0,1.9-1.2,1.9-2.3c0-1.8-1-3.5-2.6-3.5c-1.2,0-2,1.1-2,2.3   C-359.4,477-358.4,478.8-356.8,478.8z"/>
	<path class="st8" d="M-347.6,476.6c0.1,0.1,0.7,0.7,0.8,0.8c0-0.3,0-1.1,0-1.4c0-3-0.1-3-1.2-3.1l0-0.2c0.1,0,0.3,0,0.4,0   c0.2,0,0.4,0,0.7,0.1c0.3,0,0.6,0,1.3,0v0.2c-0.3,0-0.8,0-0.8,0.5c0,0.3-0.1,2.3-0.1,3.2c0,0.6,0,2,0,2.5l-0.3,0   c-0.3-0.6-0.8-1.2-2.4-2.7l-0.9-0.8c0,0-1.1-1.1-1.5-1.5l0,0.5l0,2.7c0,1.1,0,1.2,1.2,1.5v0.3c-0.1,0-0.2,0-0.4,0   c-0.2,0-0.5,0-0.7,0c-0.2,0-0.5,0-0.7,0c-0.2,0-0.5,0-0.7,0v-0.2c0.1,0,0.2,0,0.4-0.1c0.2,0,0.4-0.1,0.5-0.5c0-0.4,0.1-1.6,0.1-2.1   l0-1.1c0-1.8-0.2-2-1.1-2.2l0-0.3c0.2,0,0.3,0,0.5,0c0.2,0,0.3,0,0.5,0c0.3,0,0.4,0,0.7,0c0.8,1,2.4,2.6,2.9,3.1L-347.6,476.6z"/>
	<path class="st8" d="M-339,475h-1.4l-0.3,2.3c-0.3,2.2-0.7,3.4-1.7,4.3c-0.6,0.5-1.2,0.9-2,0.9c-0.2,0-0.6,0-0.6-0.3   c0-0.3,0.4-0.3,0.5-0.3c0.1,0,0.5,0,0.6,0c1.8,0,2.1-1.8,2.4-3.9l0.4-2.9l-0.9,0c0-0.1,0-0.2,0.1-0.3l0.9,0   c0.1-0.6,0.2-1.6,1.1-2.4c0.5-0.5,1.1-0.6,1.4-0.6c0.3,0,0.5,0.1,0.5,0.3c0,0.4-0.5,0.4-0.7,0.4l-0.3,0c-1,0-1.1,0.6-1.4,2.3h1.4   L-339,475z"/>
	<path class="st8" d="M-337.8,479.2c-0.7,0-1.4-0.7-1.4-2c0-1.2,1.2-2.7,2.1-2.7c0.5,0,1.2,0.6,1.2,1.8c0,0.3-0.1,1.6-1.5,2.9   C-337.5,479.1-337.6,479.2-337.8,479.2z M-336.4,476.5c0-0.5-0.2-1.5-1.1-1.5c-0.2,0-0.4,0.1-0.5,0.2c-0.1,0.2-0.5,0.9-0.5,1.7   c0,0.8,0.2,1.8,1,1.8c0.3,0,0.3,0,0.4-0.1C-336.7,478-336.4,477.2-336.4,476.5z"/>
	<path class="st8" d="M-335,479.1l0.3-1.3c0.1-0.4,0.4-1.8,0.4-2.1c0-0.2,0-0.2-0.1-0.2c-0.2,0.1-0.5,0.4-0.7,0.6   c-0.2,0.2-0.3,0.3-0.4,0.4c0,0-0.1-0.1-0.1-0.1c0.3-0.4,1.2-1.4,1.7-1.8c0.2,0.2,0.3,0.3,0.3,0.6c0,0.2,0,0.6-0.3,1.5l0,0l0.2-0.5   c0.2-0.4,0.9-1.7,1.4-1.7c0,0,0.5,0,0.5,0.5c0,0.2-0.3,0.4-0.4,0.4c-0.1,0-0.3-0.1-0.4-0.1c-0.2,0-0.6,0.5-0.7,0.6   c-0.7,1-0.9,1.9-1.2,3.3H-335z"/>
	<path class="st8" d="M-323.5,471c-0.1-1.7-1.8-2-2.6-2c-2,0-2.1,1.6-2.1,1.9c0,1.3,1.1,1.8,2.4,2.3c1.2,0.5,3,1.1,3,3.1   c0,1.4-1.1,2.6-3.4,2.6c-0.2,0-1.1,0-2.3-0.3c-0.1,0-0.2,0-0.3,0c-0.2,0-0.2,0.2-0.2,0.3l-0.3,0c0-0.9-0.2-1.9-0.4-2.6   c0.1,0,0.1,0,0.3-0.1c0.3,1,0.4,1.3,1,1.6c0.4,0.2,1.4,0.7,2.6,0.7c0.3,0,2,0,2-1.8c0-1.5-1.1-2-2.5-2.5c-1.6-0.6-2.8-1.2-2.8-2.8   c0-1.5,1.1-2.7,3.3-2.7c0.3,0,0.8,0,1.6,0.2c0.3,0.1,0.3,0.1,0.4,0.1c0.2,0,0.4-0.1,0.5-0.2c0,0,0.1,0,0.2,0c0,0.3-0.1,0.8-0.1,1.2   c0,0.3,0.1,0.9,0.1,1L-323.5,471z"/>
	<path class="st8" d="M-317.6,478.8c-0.3,0-0.6,0-0.8,0c-0.3,0-0.6,0-0.7,0c-0.5,0-0.8,0-1,0c-0.2,0-0.4,0-0.6,0l0-0.2   c0.1,0,0.3,0,0.5-0.1c0.5-0.1,0.6-0.2,0.7-0.4c0.1-0.4,0.1-2.3,0.1-2.9c0-0.8,0-1.6-0.1-2.4c-0.4,0-0.8,0-0.9,0   c-1.1,0-1.4,0.3-1.6,0.8l-0.2-0.1c0-0.1,0.4-1.2,0.5-1.3h0.2c0,0.1,0.1,0.1,0.5,0.2c0.4,0,0.8,0,1.4,0h1.8c0.5,0,1.2,0,1.4,0   c0.4,0,0.4-0.1,0.6-0.2l0.2,0.1c-0.1,0.4-0.2,0.6-0.3,1.2l-0.3,0l0-0.5c-0.3-0.2-0.5-0.3-1.4-0.3c-0.6,0-0.6,0-0.6,0.2   c0,0.5-0.1,2.5-0.1,2.9c0,0.5,0,2.2,0.2,2.4c0.1,0.1,0.4,0.2,0.6,0.2c0.1,0,0.2,0,0.3,0L-317.6,478.8z"/>
	<path class="st8" d="M-315.4,472.4c0.2,0,0.4,0,0.6,0c0.2,0,0.4,0,0.6,0c0.1,0,0.5,0,0.9-0.1c0.4,0,0.6,0,0.9,0   c1.3,0,2.2,0.7,2.2,1.7c0,0.9-0.8,1.4-1.4,1.6c1.3,1.9,1.6,2.2,2.1,2.7c0.1,0.1,0.5,0.4,1,0.5l0,0.2c-1.1,0-1.6-0.4-1.9-0.6   c-1-0.8-1.9-2.3-2.1-2.6c-0.3,0-0.4,0-0.8,0v0.9c0,0.4,0,1.3,0.1,1.6c0.1,0.1,0.6,0.3,0.9,0.4l0,0.2c-0.4-0.1-1-0.1-1.4-0.1   c-0.2,0-1.2,0.1-1.4,0.1l0-0.2c0.1,0,0.7-0.1,0.8-0.4c0.1-0.2,0.1-1.6,0.1-2v-1.5c0-2-0.1-2-0.9-2L-315.4,472.4z M-313.5,475.4   c0.2,0,0.5,0,0.7,0c0.2,0,1.6,0,1.6-1.3c0-0.6-0.4-1.4-1.6-1.4c-0.7,0-0.7,0.1-0.7,1.2L-313.5,475.4z"/>
	<path class="st8" d="M-306.3,478.8c-0.1,0-0.3,0-0.5,0c-0.2,0-0.4,0-0.6,0c-0.2,0-0.4,0-0.5,0c-0.2,0-0.3,0-0.5,0l0-0.2   c0.5,0,0.7-0.4,1.1-1.2l1.5-3.6c0.2-0.4,0.4-1.1,0.5-1.5h0.2c0.2,0.7,0.5,1.5,0.7,1.9l1.1,2.8c0.5,1.3,0.8,1.5,1.3,1.5v0.2   c-0.3,0-0.7,0-1.2,0c-0.5,0-1,0-1.5,0.1l0-0.2c0.7-0.1,0.7-0.2,0.7-0.3c0-0.2-0.1-0.6-0.2-0.7l-0.3-0.9c-0.3,0-0.7-0.1-1-0.1   c-0.6,0-0.9,0-1.1,0.1c-0.2,0.4-0.6,1.3-0.6,1.6c0,0.2,0.3,0.3,0.8,0.4V478.8z M-306.4,476.2c0.6,0,0.9,0,0.9,0c0.2,0,0.7,0,0.9,0   l-0.9-2.1c-0.2,0.5-0.3,0.6-0.4,1L-306.4,476.2z"/>
	<path class="st8" d="M-297.9,478.8c-0.3,0-0.6,0-0.8,0c-0.3,0-0.6,0-0.7,0c-0.5,0-0.8,0-1,0c-0.2,0-0.4,0-0.6,0l0-0.2   c0.1,0,0.3,0,0.5-0.1c0.5-0.1,0.6-0.2,0.7-0.4c0.1-0.4,0.1-2.3,0.1-2.9c0-0.8,0-1.6-0.1-2.4c-0.4,0-0.8,0-0.9,0   c-1.1,0-1.4,0.3-1.6,0.8l-0.2-0.1c0-0.1,0.4-1.2,0.5-1.3h0.2c0,0.1,0.1,0.1,0.5,0.2c0.4,0,0.8,0,1.4,0h1.8c0.5,0,1.2,0,1.4,0   c0.4,0,0.4-0.1,0.6-0.2l0.2,0.1c-0.1,0.4-0.2,0.6-0.3,1.2l-0.3,0l0-0.5c-0.3-0.2-0.5-0.3-1.4-0.3c-0.6,0-0.6,0-0.6,0.2   c0,0.5-0.1,2.5-0.1,2.9c0,0.5,0,2.2,0.2,2.4c0.1,0.1,0.4,0.2,0.6,0.2c0.1,0,0.2,0,0.3,0L-297.9,478.8z"/>
	<path class="st8" d="M-295.6,472.4c0.4,0,1.7,0,2.2,0c0.8,0,2,0,2.8-0.1c0,0.2,0,0.3,0,0.6c0,0.1-0.1,0.7-0.1,0.8l-0.3,0   c0-0.6,0-1-1.5-1c-0.3,0-1,0.1-1.3,0.1c-0.1,0.5-0.1,1.2-0.1,1.6c0,0.1,0,0.5,0,0.9c0.1,0,1.1,0.1,2.1-0.1c0.2,0,0.3-0.1,0.4-0.6   h0.2c0,0.9,0,1.1,0,2h-0.2c-0.2-0.8-0.3-0.9-1.6-0.9c-0.2,0-0.6,0-1,0.1l0,1.2c0,0.8,0,1.1,0.1,1.3c0.3,0.1,0.6,0.2,1.1,0.2   c1.4,0,2-0.5,2.2-1.2l0.2,0c-0.1,1-0.3,1.4-0.5,1.6c-0.4,0-2.1,0-2.5,0c-0.6,0-1.6,0-2.5,0.1l0-0.3c0.4,0,0.7-0.1,0.8-0.4   c0.1-0.4,0.1-1.8,0.1-2.6c0-0.5,0-2.4-0.1-2.7c0-0.2-0.1-0.2-0.6-0.3V472.4z"/>
	<path class="st8" d="M-282.7,475.8c-0.5,0.1-0.6,0.2-0.6,0.8v0.6c0,0.4,0,1,0.3,1.1v0.2c-1,0.2-1.9,0.4-2.8,0.4   c-2.1,0-3.6-1.3-3.6-3.2c0-1.8,1.6-3.3,3.7-3.3c0.6,0,1.2,0.1,1.3,0.2c0.1,0,0.2,0.1,0.3,0.1c0,0,0.1,0,0.3-0.2l0.2,0l0.1,1.6   l-0.2,0.1c-0.1-0.2-0.2-0.3-0.4-0.5c-0.3-0.3-0.8-0.8-1.7-0.8c-1.1,0-2.5,0.9-2.5,2.7c0,2,1.4,3.1,2.8,3.1c0.4,0,1-0.1,1.2-0.4   c0.1-0.1,0.1-0.3,0.1-0.7l0-0.5c0-0.9-0.1-1.1-0.9-1.1l-0.3,0l0-0.3l0.6,0c1.1,0,1.7,0,2.1-0.1V475.8z"/>
	<path class="st8" d="M-281.7,472.4l0.6,0c0.2,0,0.5,0,1,0c0.5,0,0.8,0,1.1,0h0.7v0.3c-0.2,0-0.8-0.1-1,0.3   c-0.1,0.3-0.2,0.9-0.2,3.5c0,0.4,0,1.6,0.1,1.8c0.1,0.3,0.4,0.3,1,0.3l0,0.3c-0.2,0-1.3,0-1.5,0h-0.9c-0.2,0-0.8,0-1,0v-0.2   c0.2,0,1-0.1,1.1-0.4c0.2-0.3,0.2-1.8,0.2-2.3c0-0.5,0-2.5-0.1-2.8c-0.1-0.2-0.2-0.4-1.1-0.4V472.4z"/>
	<path class="st8" d="M-272.4,474c0-0.1,0-0.2,0-0.3c0-0.2,0-0.4-0.2-0.5c-0.4-0.3-1-0.5-1.6-0.5c-1.4,0-2.3,1.4-2.3,2.9   c0,1.9,1.3,2.9,2.6,2.9c0.3,0,1,0,1.6-1c0.2-0.3,0.2-0.3,0.3-0.3c0,0,0.2,0.1,0.2,0.1c0,0-0.2,0.7-0.2,0.7   c-0.1,0.3-0.1,0.4-0.1,0.5c-0.6,0.2-1.3,0.3-1.9,0.3c-2.3,0-3.5-1.7-3.5-3.3c0-1.9,1.8-3.2,3.7-3.2c0.1,0,0.6,0,1.2,0.2   c0.1,0,0.6,0.2,0.6,0.2c0.2,0,0.2,0,0.2,0.1c0,0.1-0.1,0.3-0.1,0.4c-0.2,0.5-0.2,0.6-0.2,1L-272.4,474z"/>
	<path class="st8" d="M-263.7,474c-0.6,0-1.1,0-1.7-0.1l0,1.9c0,0.5,0,1.9,0.2,2.3c0.1,0.3,0.2,0.3,0.9,0.5c0.1,0,0.2,0,0.2,0.1   c0,0.1,0,0.2-0.1,0.2c-0.1,0-0.3,0-0.7-0.1c-0.3,0-0.7-0.1-0.8-0.1c-0.4,0-0.7,0-1,0c-0.3,0-0.6,0-0.6,0c-0.1,0-0.2,0-0.2-0.1   c0-0.1,0-0.1,0.3-0.2c0.6-0.2,0.8-0.3,0.8-2.8v-3.4c0-3.1,0-3.1-1.1-3.2c0-0.1,0-0.2,0-0.3c0.4,0,0.8,0,1,0c0.4,0,2.4-0.2,2.8-0.2   c2.3,0,3.4,1.3,3.4,2.6c0,1-0.6,2-2.2,2.6l0.3,0.5c1.5,2.2,3.2,5.4,4.7,5.5c0.1,0,0.1,0,0.1,0.2c0,0.1,0,0.1-0.4,0.1   c-2.1,0-3.9-3-5.3-4.9L-263.7,474z M-263.9,469c-0.3,0-1.2,0.1-1.3,0.4c-0.2,0.4-0.2,2.8-0.2,4.1c0.2,0,0.5,0.1,1.3,0.1   c0.5,0,2.7,0,2.7-2.1C-261.4,470.6-262.1,469-263.9,469z"/>
	<path class="st8" d="M-257.8,472.4c0.4,0,1.7,0,2.2,0c0.8,0,2,0,2.8-0.1c0,0.2,0,0.3,0,0.6c0,0.1-0.1,0.7-0.1,0.8l-0.3,0   c0-0.6,0-1-1.5-1c-0.3,0-1,0.1-1.3,0.1c-0.1,0.5-0.1,1.2-0.1,1.6c0,0.1,0,0.5,0,0.9c0.1,0,1.1,0.1,2.1-0.1c0.2,0,0.3-0.1,0.4-0.6   h0.2c0,0.9,0,1.1,0,2h-0.2c-0.2-0.8-0.3-0.9-1.6-0.9c-0.2,0-0.6,0-1,0.1l0,1.2c0,0.8,0,1.1,0.1,1.3c0.3,0.1,0.6,0.2,1.1,0.2   c1.4,0,2-0.5,2.2-1.2l0.2,0c-0.1,1-0.3,1.4-0.5,1.6c-0.4,0-2.1,0-2.5,0c-0.6,0-1.6,0-2.5,0.1l0-0.3c0.4,0,0.7-0.1,0.8-0.4   c0.1-0.4,0.1-1.8,0.1-2.6c0-0.5,0-2.4-0.1-2.7c0-0.2-0.1-0.2-0.7-0.3V472.4z"/>
	<path class="st8" d="M-247.7,472.4l0.2,0c0,0.1-0.1,0.5-0.1,0.8c0,0.1,0.1,0.7,0.1,0.8h-0.2c-0.1-0.3-0.1-0.6-0.4-0.8   c-0.1-0.1-0.6-0.5-1.2-0.5c-0.8,0-1.2,0.5-1.2,1.1c0,0.7,0.7,1,1.4,1.3c0.8,0.3,2,0.8,2,2c0,0.9-0.1,1.8-1.6,1.8   c-0.5,0-1.6-0.1-1.8-0.1c-0.1,0-0.3-0.1-0.4-0.1c-0.1,0-0.2,0.1-0.2,0.2l-0.2,0c0-0.8-0.1-1.2-0.3-1.9h0.3c0,0.2,0.2,0.6,0.5,1   c0.3,0.2,1,0.6,1.7,0.6c0.8,0,1.2-0.6,1.2-1c0-0.9-0.6-1.1-1.7-1.6c-0.7-0.3-1.6-0.7-1.6-1.7c0-1,0.9-1.8,2.2-1.8   c0.4,0,0.7,0,1.3,0.2L-247.7,472.4z"/>
	<path class="st8" d="M-246.1,472.4c0.4,0,1.7,0,2.2,0c0.8,0,2,0,2.8-0.1c0,0.2,0,0.3,0,0.6c0,0.1-0.1,0.7-0.1,0.8l-0.3,0   c0-0.6,0-1-1.5-1c-0.3,0-1,0.1-1.3,0.1c-0.1,0.5-0.1,1.2-0.1,1.6c0,0.1,0,0.5,0,0.9c0.1,0,1.1,0.1,2.1-0.1c0.2,0,0.3-0.1,0.4-0.6   h0.2c0,0.9,0,1.1,0,2h-0.2c-0.2-0.8-0.3-0.9-1.6-0.9c-0.2,0-0.6,0-1,0.1l0,1.2c0,0.8,0,1.1,0.1,1.3c0.3,0.1,0.6,0.2,1.1,0.2   c1.4,0,2-0.5,2.2-1.2l0.2,0c-0.1,1-0.3,1.4-0.5,1.6c-0.4,0-2.1,0-2.5,0c-0.6,0-0.9,0-1.8,0.1l-0.8-0.3c0.4,0,0.7-0.1,0.8-0.4   c0.1-0.4,0.1-1.8,0.1-2.6c0-0.5,0-2.4-0.1-2.7c0-0.2-0.1-0.2-0.7-0.3V472.4z"/>
	<path class="st8" d="M-238.4,478.8c-0.1,0-0.3,0-0.5,0c-0.2,0-0.4,0-0.6,0c-0.2,0-0.4,0-0.5,0c-0.2,0-0.3,0-0.5,0l0-0.2   c0.5,0,0.7-0.4,1.1-1.2l1.5-3.6c0.2-0.4,0.4-1.1,0.5-1.5h0.2c0.2,0.7,0.5,1.5,0.7,1.9l1.1,2.8c0.5,1.3,0.8,1.5,1.3,1.5v0.2   c-0.3,0-0.7,0-1.2,0c-0.5,0-1,0-1.5,0.1l0-0.2c0.7-0.1,0.7-0.2,0.7-0.3c0-0.2-0.1-0.6-0.2-0.7l-0.3-0.9c-0.3,0-0.7-0.1-1-0.1   c-0.6,0-0.9,0-1.1,0.1c-0.2,0.4-0.6,1.3-0.6,1.6c0,0.2,0.3,0.3,0.8,0.4V478.8z M-238.4,476.2c0.6,0,0.9,0,0.9,0c0.2,0,0.7,0,0.9,0   l-0.9-2.1c-0.2,0.5-0.3,0.6-0.4,1L-238.4,476.2z"/>
	<path class="st8" d="M-233.4,472.4c0.2,0,0.4,0,0.6,0c0.2,0,0.4,0,0.6,0c0.1,0,0.5,0,0.9-0.1c0.4,0,0.6,0,0.9,0   c1.3,0,2.2,0.7,2.2,1.7c0,0.9-0.8,1.4-1.4,1.6c1.3,1.9,1.6,2.2,2.1,2.7c0.1,0.1,0.5,0.4,1,0.5l0.7,0.2c-1.1,0-2.4-0.4-2.7-0.6   c-1-0.8-1.9-2.3-2.1-2.6c-0.3,0-0.4,0-0.8,0v0.9c0,0.4,0,1.3,0.1,1.6c0.1,0.1,0.6,0.3,0.9,0.4l0.8,0.2c-0.4-0.1-1.7-0.1-2.1-0.1   c-0.2,0-1.2,0.1-1.4,0.1l0-0.2c0.1,0,0.7-0.1,0.8-0.4c0.1-0.2,0.1-1.6,0.1-2v-1.5c0-2-0.1-2-0.9-2L-233.4,472.4z M-231.5,475.4   c0.2,0,0.5,0,0.7,0c0.2,0,1.6,0,1.6-1.3c0-0.6-0.4-1.4-1.6-1.4c-0.7,0-0.7,0.1-0.7,1.2L-231.5,475.4z"/>
	<path class="st8" d="M-222,474c0-0.1,0-0.2,0-0.3c0-0.2,0-0.4-0.2-0.5c-0.4-0.3-1-0.5-1.6-0.5c-1.4,0-2.3,1.4-2.3,2.9   c0,1.9,1.3,2.9,2.6,2.9c0.3,0,1,0,1.6-1c0.2-0.3,0.2-0.3,0.3-0.3c0,0,0.2,0.1,0.2,0.1c0,0-0.2,0.7-0.2,0.7   c-0.1,0.3-0.1,0.4-0.1,0.5c-0.6,0.2-0.5,0.3-1.2,0.3c-2.3,0-4.3-1.7-4.3-3.3c0-1.9,1.8-3.2,3.7-3.2c0.1,0,0.6,0,1.2,0.2   c0.1,0,0.6,0.2,0.6,0.2c0.2,0,0.2,0,0.2,0.1c0,0.1-0.1,0.3-0.1,0.4c-0.2,0.5-0.2,0.6-0.2,1L-222,474z"/>
	<path class="st8" d="M-219.6,475c0-2.3-0.1-2.3-0.9-2.3l0-0.3c0.1,0,0.3,0,0.5,0c0.2,0,0.4,0,0.7,0c0.3,0,0.5,0,0.7,0   c0.3,0,0.6,0,0.9,0l0,0.3c-0.9,0-0.9,0.1-1,1.6l0,1l2.1,0c0.3,0,1.5,0,1.8,0v-0.8c0-0.3,0-1.3-0.2-1.6c-0.1-0.1-0.2-0.2-0.7-0.3   v-0.2h0.4c0.1,0,0.3,0,0.5,0c0.2,0,0.3,0,0.6,0c0.4,0,0.9,0,1.1-0.1l0,0.3c-0.5,0.1-0.6,0.2-0.7,0.4c0,0.4-0.1,1.1-0.1,1.8l0,1.9   c0,1.5,0,1.7,0.8,1.9v0.3c-0.4,0-0.7,0-0.9-0.1c-0.2,0-0.3,0-0.5,0c-0.5,0-0.7,0-1.2,0.1v-0.3c0.7-0.1,0.8-0.1,0.8-1.7v-1   c-0.5,0-3.2,0-3.8,0v1.1c0,1,0,1.4,0.3,1.5c0.1,0.1,0.4,0.1,0.7,0.1l0,0.3c-0.3,0-0.6-0.1-0.8-0.1c-0.3,0-0.5,0-0.7,0   c-0.5,0-0.8,0-1.3,0.1v-0.3c0.5-0.1,0.7-0.1,0.8-0.4c0.1-0.3,0.1-1.6,0.1-1.9L-219.6,475z"/>
</g>
</svg>